<svg width="156" height="56" viewBox="0 0 156 56" fill="none" xmlns="http://www.w3.org/2000/svg">
<rect width="156" height="56" fill="black"/>
<path d="M53.032 34.224H58.888V36H50.848V19.272H53.032V34.224ZM66.9434 36.216C65.7114 36.216 64.5914 35.936 63.5834 35.376C62.5914 34.816 61.8074 34.024 61.2314 33C60.6714 31.96 60.3914 30.76 60.3914 29.4C60.3914 28.056 60.6794 26.872 61.2554 25.848C61.8474 24.808 62.6474 24.016 63.6554 23.472C64.6634 22.912 65.7914 22.632 67.0394 22.632C68.2874 22.632 69.4154 22.912 70.4234 23.472C71.4314 24.016 72.2234 24.8 72.7994 25.824C73.3914 26.848 73.6874 28.04 73.6874 29.4C73.6874 30.76 73.3834 31.96 72.7754 33C72.1834 34.024 71.3754 34.816 70.3514 35.376C69.3274 35.936 68.1914 36.216 66.9434 36.216ZM66.9434 34.296C67.7274 34.296 68.4634 34.112 69.1514 33.744C69.8394 33.376 70.3914 32.824 70.8074 32.088C71.2394 31.352 71.4554 30.456 71.4554 29.4C71.4554 28.344 71.2474 27.448 70.8314 26.712C70.4154 25.976 69.8714 25.432 69.1994 25.08C68.5274 24.712 67.7994 24.528 67.0154 24.528C66.2154 24.528 65.4794 24.712 64.8074 25.08C64.1514 25.432 63.6234 25.976 63.2234 26.712C62.8234 27.448 62.6234 28.344 62.6234 29.4C62.6234 30.472 62.8154 31.376 63.1994 32.112C63.5994 32.848 64.1274 33.4 64.7834 33.768C65.4394 34.12 66.1594 34.296 66.9434 34.296ZM81.9829 22.632C83.1189 22.632 84.1109 22.88 84.9589 23.376C85.8229 23.872 86.4629 24.496 86.8789 25.248V22.848H89.0869V36.288C89.0869 37.488 88.8309 38.552 88.3189 39.48C87.8069 40.424 87.0709 41.16 86.1109 41.688C85.1669 42.216 84.0629 42.48 82.7989 42.48C81.0709 42.48 79.6309 42.072 78.4789 41.256C77.3269 40.44 76.6469 39.328 76.4389 37.92H78.5989C78.8389 38.72 79.3349 39.36 80.0869 39.84C80.8389 40.336 81.7429 40.584 82.7989 40.584C83.9989 40.584 84.9749 40.208 85.7269 39.456C86.4949 38.704 86.8789 37.648 86.8789 36.288V33.528C86.4469 34.296 85.8069 34.936 84.9589 35.448C84.1109 35.96 83.1189 36.216 81.9829 36.216C80.8149 36.216 79.7509 35.928 78.7909 35.352C77.8469 34.776 77.1029 33.968 76.5589 32.928C76.0149 31.888 75.7429 30.704 75.7429 29.376C75.7429 28.032 76.0149 26.856 76.5589 25.848C77.1029 24.824 77.8469 24.032 78.7909 23.472C79.7509 22.912 80.8149 22.632 81.9829 22.632ZM86.8789 29.4C86.8789 28.408 86.6789 27.544 86.2789 26.808C85.8789 26.072 85.3349 25.512 84.6469 25.128C83.9749 24.728 83.2309 24.528 82.4149 24.528C81.5989 24.528 80.8549 24.72 80.1829 25.104C79.5109 25.488 78.9749 26.048 78.5749 26.784C78.1749 27.52 77.9749 28.384 77.9749 29.376C77.9749 30.384 78.1749 31.264 78.5749 32.016C78.9749 32.752 79.5109 33.32 80.1829 33.72C80.8549 34.104 81.5989 34.296 82.4149 34.296C83.2309 34.296 83.9749 34.104 84.6469 33.72C85.3349 33.32 85.8789 32.752 86.2789 32.016C86.6789 31.264 86.8789 30.392 86.8789 29.4ZM98.5137 36.216C97.2817 36.216 96.1617 35.936 95.1537 35.376C94.1617 34.816 93.3777 34.024 92.8017 33C92.2417 31.96 91.9617 30.76 91.9617 29.4C91.9617 28.056 92.2497 26.872 92.8257 25.848C93.4177 24.808 94.2177 24.016 95.2257 23.472C96.2337 22.912 97.3617 22.632 98.6097 22.632C99.8577 22.632 100.986 22.912 101.994 23.472C103.002 24.016 103.794 24.8 104.37 25.824C104.962 26.848 105.258 28.04 105.258 29.4C105.258 30.76 104.954 31.96 104.346 33C103.754 34.024 102.946 34.816 101.922 35.376C100.898 35.936 99.7617 36.216 98.5137 36.216ZM98.5137 34.296C99.2977 34.296 100.034 34.112 100.722 33.744C101.41 33.376 101.962 32.824 102.378 32.088C102.81 31.352 103.026 30.456 103.026 29.4C103.026 28.344 102.818 27.448 102.402 26.712C101.986 25.976 101.442 25.432 100.77 25.08C100.098 24.712 99.3697 24.528 98.5857 24.528C97.7857 24.528 97.0497 24.712 96.3777 25.08C95.7217 25.432 95.1937 25.976 94.7937 26.712C94.3937 27.448 94.1937 28.344 94.1937 29.4C94.1937 30.472 94.3857 31.376 94.7697 32.112C95.1697 32.848 95.6977 33.4 96.3537 33.768C97.0097 34.12 97.7297 34.296 98.5137 34.296Z" fill="white"/>
</svg>
